<?xml version="1.0" encoding="UTF-8"?>
<svg version="1.1" xmlns="http://www.w3.org/2000/svg" width="669" height="293">
<path d="M0 0 C220.77 0 441.54 0 669 0 C669 96.69 669 193.38 669 293 C448.23 293 227.46 293 0 293 C0 196.31 0 99.62 0 0 Z " fill="#FEFEFE" transform="translate(0,0)"/>
<path d="M0 0 C19.17089691 -2.2463445 19.17089691 -2.2463445 25.46337891 2.04638672 C29.9350164 6.4655257 33.36710394 11.68841573 36.02197266 17.38085938 C36.02197266 17.71085937 36.02197266 18.04085937 36.02197266 18.38085938 C35.0903833 18.38496826 34.15879395 18.38907715 33.19897461 18.39331055 C29.67757674 18.42059467 26.15782676 18.46999136 22.63696289 18.53344727 C21.12535005 18.55636749 19.6135834 18.57096072 18.10180664 18.57641602 C6.04466724 18.62843819 -6.42394751 19.78195208 -15.56005859 28.66992188 C-18.30411505 31.98093215 -20.22082079 35.46653029 -21.97802734 39.38085938 C-22.37248047 40.25484375 -22.76693359 41.12882812 -23.17333984 42.02929688 C-28.75100623 56.2659978 -26.79194192 71.53206471 -20.97802734 85.38085938 C-14.50738442 97.95830879 -5.66466113 103.83425036 7.52978516 108.43554688 C14.91324271 110.43420093 22.41751103 110.62344754 30.02197266 110.94335938 C31.47023437 111.00813477 31.47023437 111.00813477 32.94775391 111.07421875 C35.30571691 111.17927651 37.66376682 111.28142852 40.02197266 111.38085938 C38.6041032 114.57840867 36.88671565 116.7994622 34.46728516 119.31445312 C33.76990234 120.04599609 33.07251953 120.77753906 32.35400391 121.53125 C31.26152344 122.66336914 31.26152344 122.66336914 30.14697266 123.81835938 C28.71033734 125.31538992 27.27539263 126.81404502 25.84228516 128.31445312 C24.82328125 129.36693237 24.82328125 129.36693237 23.78369141 130.44067383 C21.85744254 132.45417663 21.85744254 132.45417663 20.09228516 135.38867188 C17.25718407 138.11678802 15.20639507 137.94886492 11.37133789 137.92285156 C10.51354736 137.88836914 9.65575684 137.85388672 8.77197266 137.81835938 C7.88388916 137.79805664 6.99580566 137.77775391 6.08081055 137.75683594 C-17.09195011 137.05142465 -34.30525953 131.16495296 -50.53662109 114.20117188 C-61.10922251 101.98770272 -65.15628937 89.21474483 -65.16552734 73.38085938 C-65.17777344 72.30707031 -65.19001953 71.23328125 -65.20263672 70.12695312 C-65.23983276 49.52034351 -58.64296482 33.21363768 -44.26318359 18.62695312 C-31.52235874 7.1794356 -16.74480499 2.14149006 0 0 Z " fill="#181818" transform="translate(96.97802734375,118.619140625)"/>
<path d="M0 0 C8.65653179 5.92620127 14.40331753 13.58495259 17.734375 23.578125 C19.6315562 34.12645249 18.74666981 44.50314124 13.125 53.75 C5.50908704 64.30433607 -5.05265007 71.24773325 -17.875 73.75 C-34.80554587 75.35660231 -47.88447985 72.30693776 -61.1875 61.375 C-68.34891772 54.79111597 -72.3752096 46.64386969 -73.1953125 36.97265625 C-73.69088871 24.95600439 -71.1159513 16.40102989 -63.2734375 7.14453125 C-56.32713589 0.20954284 -48.42003566 -4.15770052 -38.875 -6.25 C-38.27558594 -6.43046875 -37.67617188 -6.6109375 -37.05859375 -6.796875 C-24.18914576 -9.46745812 -11.15948023 -6.63495627 0 0 Z " fill="#181818" transform="translate(300.875,144.25)"/>
<path d="M0 0 C8.89274825 -0.11600884 17.78523481 -0.20477287 26.67857552 -0.25906086 C30.80845044 -0.28512069 34.93780649 -0.32045125 39.06738281 -0.37719727 C43.05503287 -0.43164817 47.04218485 -0.46144772 51.03017807 -0.47438622 C52.54923211 -0.48360284 54.06825982 -0.50160138 55.58710098 -0.52865028 C57.72028073 -0.56511834 59.85142043 -0.56993851 61.98486328 -0.56762695 C63.1973172 -0.57873001 64.40977112 -0.58983307 65.65896606 -0.60127258 C70.16001448 0.20876319 71.76604261 1.80170323 75 5 C79.09662299 11.73561035 81.4033645 19.14630876 80 27 C78.26959477 32.4986481 75.67688605 36.57383255 72 41 C72.67546875 41.94101563 73.3509375 42.88203125 74.046875 43.8515625 C74.94796804 45.1093382 75.84900681 46.36715277 76.75 47.625 C77.1934375 48.24246094 77.636875 48.85992187 78.09375 49.49609375 C80.80507562 53.28397513 83.438174 57.1093764 86 61 C70.85997268 70.50478142 70.85997268 70.50478142 64.125 74.625 C63.36445313 75.09164062 62.60390625 75.55828125 61.8203125 76.0390625 C60 77 60 77 58 77 C56.35526086 75.05457729 54.82536868 73.10687148 53.3125 71.0625 C52.40520422 69.85787983 51.49765132 68.65345328 50.58984375 67.44921875 C50.14624512 66.8567334 49.70264648 66.26424805 49.24560547 65.65380859 C47.65155389 63.537363 46.01578342 61.45534665 44.375 59.375 C40.48104481 54.32728031 36.74967466 49.15580266 33 44 C33 53.9 33 63.8 33 74 C21.78 74 10.56 74 -1 74 C-1.02352719 68.60443192 -1.04325087 63.20905606 -1.05493164 57.81347656 C-1.05982311 55.99511092 -1.06653256 54.17674885 -1.07543945 52.35839844 C-1.15857625 34.88989003 -0.6161322 17.45504295 0 0 Z " fill="#181818" transform="translate(138,143)"/>
<path d="M0 0 C0.86882812 0.00563965 1.73765625 0.0112793 2.6328125 0.01708984 C8.72444802 0.12854912 14.71934158 0.56877132 20.75 1.4375 C21.49668945 1.52990967 22.24337891 1.62231934 23.01269531 1.7175293 C27.01954142 2.38672632 28.60712589 3.14915308 31.3125 6.2421875 C32.75 9.3125 32.75 9.3125 31.75 12.3125 C30.44804688 12.48265625 29.14609375 12.6528125 27.8046875 12.828125 C26.07801109 13.07211188 24.35145461 13.31694854 22.625 13.5625 C21.7690625 13.67207031 20.913125 13.78164062 20.03125 13.89453125 C13.48142646 14.85181315 9.15177048 16.70486347 4.5625 21.6875 C-3.49176764 35.4841043 -0.71544016 55.42757116 -0.76123047 70.67773438 C-0.77703375 74.3191934 -0.81004239 77.96023201 -0.84375 81.6015625 C-0.84072876 82.69876617 -0.83770752 83.79596985 -0.83459473 84.92642212 C-0.93789929 95.7058001 -2.57354317 107.74265408 -9.86328125 116.1796875 C-24.32045774 130.12801927 -48.22928629 131.69452962 -67.27734375 131.3828125 C-68.25832031 131.35960937 -69.23929688 131.33640625 -70.25 131.3125 C-71.24 128.3425 -72.23 125.3725 -73.25 122.3125 C-71.90808594 121.96638672 -71.90808594 121.96638672 -70.5390625 121.61328125 C-55.34843728 117.69444009 -55.34843728 117.69444009 -44.25 107.3125 C-40.87233735 99.54387591 -41.1285372 91.12114077 -41.2578125 82.8125 C-41.27534503 80.76953636 -41.29225172 78.72656726 -41.30859375 76.68359375 C-41.33933809 73.50911864 -41.37466994 70.33492683 -41.42138672 67.16064453 C-41.86556951 35.2144191 -41.86556951 35.2144191 -34.5625 21.8125 C-34.21582275 21.15088867 -33.86914551 20.48927734 -33.51196289 19.80761719 C-28.60635472 10.83521226 -22.05448291 5.10900114 -12.6171875 1.23046875 C-8.33858807 0.06402923 -4.41521256 -0.02990179 0 0 Z " fill="#181818" transform="translate(601.25,122.6875)"/>
<path d="M0 0 C0.74443359 1.54107422 0.74443359 1.54107422 1.50390625 3.11328125 C5.5599411 11.4214647 9.8813644 19.28746122 15 27 C16.84456083 29.95804572 18.68478552 32.91866951 20.51953125 35.8828125 C21.82844587 38.11285575 21.82844587 38.11285575 24 39 C24.10231934 38.29327148 24.20463867 37.58654297 24.31005859 36.85839844 C25.55231021 28.81845175 27.44537434 21.08247596 29.625 13.25 C29.94984375 12.0640625 30.2746875 10.878125 30.609375 9.65625 C31.4009503 6.76932831 32.19788911 3.88400863 33 1 C36 1 36 1 38.75 2.5 C39.4925 3.325 40.235 4.15 41 5 C40.62108493 11.96558764 38.78609316 18.72931439 37.1875 25.5 C36.91760254 26.6554834 36.64770508 27.8109668 36.36962891 29.00146484 C34.62280935 36.44810348 32.8280556 43.88056817 30.94140625 51.29296875 C30.24834177 54.02208986 29.56889051 56.7526987 28.90234375 59.48828125 C28.72010254 60.23190918 28.53786133 60.97553711 28.35009766 61.74169922 C27.99950598 63.17367994 27.6514041 64.60627323 27.30615234 66.03955078 C26.11223503 70.88776497 26.11223503 70.88776497 25 72 C23.07332493 72.08748207 21.14348139 72.10697334 19.21484375 72.09765625 C17.46010742 72.09282227 17.46010742 72.09282227 15.66992188 72.08789062 C14.43822266 72.07951172 13.20652344 72.07113281 11.9375 72.0625 C10.08415039 72.05573242 10.08415039 72.05573242 8.19335938 72.04882812 C5.12885883 72.03699608 2.06445279 72.02051173 -1 72 C-1.26103516 71.32646484 -1.52207031 70.65292969 -1.79101562 69.95898438 C-6.96837483 56.65743281 -12.27685416 43.60120352 -19 31 C-20.91110934 33.86666401 -21.99525386 36.35042932 -23.20703125 39.55859375 C-23.62919922 40.66783203 -24.05136719 41.77707031 -24.48632812 42.91992188 C-24.92396484 44.08072266 -25.36160156 45.24152344 -25.8125 46.4375 C-29.06203808 55.02591607 -32.42749751 63.54016018 -36 72 C-43.26 72 -50.52 72 -58 72 C-58.969375 69.215625 -59.93875 66.43125 -60.9375 63.5625 C-66.30053042 48.74720857 -73.72072256 35.68945678 -83 23 C-84.02207241 21.56338073 -85.04316104 20.12606005 -86.0625 18.6875 C-86.701875 17.800625 -87.34125 16.91375 -88 16 C-83.10859054 12.11513647 -77.55414568 9.55327164 -72 6.75 C-70.906875 6.1828125 -69.81375 5.615625 -68.6875 5.03125 C-67.635625 4.50015625 -66.58375 3.9690625 -65.5 3.421875 C-64.5409375 2.93299805 -63.581875 2.44412109 -62.59375 1.94042969 C-60 1 -60 1 -57.82275391 1.0769043 C-55.28201588 2.36360809 -54.63027742 3.82606261 -53.3359375 6.34765625 C-52.61929932 7.71047729 -52.61929932 7.71047729 -51.88818359 9.10083008 C-51.38883301 10.07818115 -50.88948242 11.05553223 -50.375 12.0625 C-49.31632407 14.06972993 -48.2537799 16.07492409 -47.1875 18.078125 C-46.65640625 19.07650391 -46.1253125 20.07488281 -45.578125 21.10351562 C-43.31322336 25.26050712 -40.88667182 29.30084093 -38.375 33.3125 C-37.96169434 33.98095947 -37.54838867 34.64941895 -37.12255859 35.33813477 C-35.10521889 38.72645562 -35.10521889 38.72645562 -32 41 C-31.88914062 40.32066406 -31.77828125 39.64132813 -31.6640625 38.94140625 C-30.59682535 34.21417347 -28.70471517 29.79093401 -26.9609375 25.27734375 C-25.84887743 21.52097238 -25.84887743 21.52097238 -27 18 C-28.25601866 16.13997236 -29.6308932 14.43019048 -31.0390625 12.68359375 C-31.35617187 12.12800781 -31.67328125 11.57242188 -32 11 C-31.67 10.01 -31.34 9.02 -31 8 C-28.68676758 6.92504883 -28.68676758 6.92504883 -25.64453125 5.95703125 C-23.99807617 5.43012695 -23.99807617 5.43012695 -22.31835938 4.89257812 C-20.58295898 4.35793945 -20.58295898 4.35793945 -18.8125 3.8125 C-17.67490234 3.44447266 -16.53730469 3.07644531 -15.36523438 2.69726562 C-10.04581228 1.02349533 -5.62061307 -0.22018034 0 0 Z " fill="#181818" transform="translate(413,145)"/>
<path d="M0 0 C8.59908041 3.84171879 15.66452053 11.53780581 22.51098633 17.90527344 C26.57659999 21.66624572 30.80231181 25.18716682 35.13671875 28.63671875 C39.1890298 31.98139567 43.08902362 35.49196296 47 39 C46.99363525 38.0212793 46.98727051 37.04255859 46.98071289 36.03417969 C46.96626011 32.39569928 46.99763561 28.75879518 47.04272461 25.12060547 C47.05584801 23.54741788 47.05661323 21.97407595 47.04467773 20.40087891 C47.02965155 18.13550233 47.05935135 15.87440119 47.09765625 13.609375 C47.08340103 12.90818542 47.06914581 12.20699585 47.05445862 11.48455811 C47.11352539 9.48339844 47.11352539 9.48339844 48 6 C50.59392058 3.72081479 53.45566663 2 57 2 C57.00410889 3.30670654 57.00821777 4.61341309 57.01245117 5.9597168 C57.03424804 10.81493395 57.08854402 15.66934134 57.15258789 20.52416992 C57.17576296 22.62402578 57.19016244 24.7239978 57.19555664 26.82397461 C57.20484963 29.84562525 57.24584846 32.86545017 57.29296875 35.88671875 C57.2890361 36.82335861 57.28510345 37.75999847 57.28105164 38.72502136 C57.38879013 44.50448029 57.38879013 44.50448029 60.54418945 49.13208008 C61.35460693 49.74849365 62.16502441 50.36490723 63 51 C61.46728453 54.65031725 59.27846123 56.93939751 56.46484375 59.6953125 C55.57345703 60.57574219 54.68207031 61.45617187 53.76367188 62.36328125 C52.83103516 63.27464844 51.89839844 64.18601562 50.9375 65.125 C49.09027833 66.93789615 47.24511579 68.75289358 45.40234375 70.5703125 C44.58241943 71.37227051 43.76249512 72.17422852 42.91772461 73.00048828 C40.9485366 74.85596361 40.9485366 74.85596361 40 77 C35.53952641 75.5807584 32.67178163 73.13360408 29.375 69.9375 C24.71270098 65.54028393 19.92146475 61.41030666 14.92578125 57.390625 C10.92181339 54.11902509 7.01638852 50.73668624 3.12158203 47.33618164 C-1.13074433 43.65328532 -5.46773291 40.39920032 -10 37 C-10 48.22 -10 59.44 -10 71 C-12.64 71.33 -15.28 71.66 -18 72 C-18 57.81 -18 43.62 -18 29 C-19.32 28.34 -20.64 27.68 -22 27 C-23.75 24.875 -23.75 24.875 -25 23 C-16.6839571 15.31436681 -8.35291299 7.64554919 0 0 Z " fill="#181818" transform="translate(481,142)"/>
<path d="M0 0 C17.82 0 35.64 0 54 0 C53.67 2.31 53.34 4.62 53 7 C45.74 7 38.48 7 31 7 C31 12.61 31 18.22 31 24 C32.45792969 23.93039063 33.91585937 23.86078125 35.41796875 23.7890625 C37.34109969 23.73277574 39.26428055 23.67817657 41.1875 23.625 C42.14720703 23.57472656 43.10691406 23.52445313 44.09570312 23.47265625 C51.11487607 23.32692948 51.11487607 23.32692948 53.79150391 25.36230469 C55.17578125 27.0234375 55.17578125 27.0234375 57 30 C55.63016497 33.16115776 55.0109362 33.9927092 52 36 C46.72607919 35.64496249 42.00748984 34.169271 37.0625 32.4375 C33.5665625 31.2309375 33.5665625 31.2309375 30 30 C30 38.58 30 47.16 30 56 C38.25 56 46.5 56 55 56 C55.495 59.465 55.495 59.465 56 63 C37.52 63 19.04 63 0 63 C0 42.21 0 21.42 0 0 Z " fill="#1C1C1C" transform="translate(403,63)"/>
<path d="M0 0 C2.62304442 1.2237524 3.20434018 2.59179918 4.49755859 5.16137695 C4.95090576 6.04543213 5.40425293 6.9294873 5.87133789 7.84033203 C6.33838135 8.78545654 6.8054248 9.73058105 7.28662109 10.7043457 C7.76977783 11.655271 8.25293457 12.60619629 8.75073242 13.5859375 C10.1507997 16.34821968 11.53290103 19.11886195 12.91162109 21.8918457 C13.59415787 23.24654542 14.27760059 24.60078952 14.96240234 25.9543457 C16.29178821 28.59408089 17.60967081 31.23850399 18.91162109 33.8918457 C19.39630859 32.9224707 19.88099609 31.9530957 20.38037109 30.9543457 C25.22412109 21.2668457 30.06787109 11.5793457 34.91162109 1.8918457 C38.25592846 2.61550885 40.25424452 3.70900066 42.91162109 5.8918457 C41.18284245 11.62260364 38.71309482 16.96232598 36.22412109 22.3918457 C35.77568848 23.37435303 35.32725586 24.35686035 34.86523438 25.36914062 C31.91934463 31.78881765 28.85452364 38.12467077 25.64990234 44.41918945 C22.26674129 51.17790895 19.1107721 58.04454005 15.91162109 64.8918457 C9.64162109 64.8918457 3.37162109 64.8918457 -3.08837891 64.8918457 C-7.6140929 57.13347885 -11.91397814 49.37627691 -15.85791016 41.30932617 C-19.20093261 34.53350282 -22.87209695 27.94572561 -26.58374023 21.3659668 C-27.039021 20.55208496 -27.49430176 19.73820312 -27.96337891 18.8996582 C-28.37330078 18.17407715 -28.78322266 17.44849609 -29.20556641 16.70092773 C-30.08837891 14.8918457 -30.08837891 14.8918457 -30.08837891 12.8918457 C-29.38229492 12.56909668 -28.67621094 12.24634766 -27.94873047 11.91381836 C-24.74494784 10.44888586 -21.5416586 8.9828776 -18.33837891 7.5168457 C-17.22720703 7.00895508 -16.11603516 6.50106445 -14.97119141 5.9777832 C-13.90126953 5.48793945 -12.83134766 4.9980957 -11.72900391 4.4934082 C-10.25222168 3.81785889 -10.25222168 3.81785889 -8.74560547 3.12866211 C-6.14275952 1.96663327 -6.14275952 1.96663327 -3.98583984 0.66674805 C-2.08837891 -0.1081543 -2.08837891 -0.1081543 0 0 Z " fill="#181818" transform="translate(355.08837890625,61.108154296875)"/>
<path d="M0 0 C17.82 0 35.64 0 54 0 C50 6 50 6 47.52636719 6.68115234 C46.62563477 6.64973145 45.72490234 6.61831055 44.796875 6.5859375 C43.91354492 6.57095215 43.03021484 6.5559668 42.12011719 6.54052734 C41.00797852 6.48590332 39.89583984 6.4312793 38.75 6.375 C35.2025 6.25125 31.655 6.1275 28 6 C28 13.92 28 21.84 28 30 C35.01811885 29.43537422 35.01811885 29.43537422 42.0300293 28.80126953 C49.11549267 28.35409403 49.11549267 28.35409403 51.82275391 30.33105469 C53.20703125 31.9921875 53.20703125 31.9921875 55 35 C53.63016497 38.16115776 53.0109362 38.9927092 50 41 C42.76395035 40.44742894 35.92426127 38.04430571 29 36 C29.00785522 37.30988892 29.00785522 37.30988892 29.01586914 38.64624023 C29.03287751 41.87589273 29.04543369 45.10552245 29.05493164 48.33520508 C29.0599708 49.73495228 29.06680216 51.1346942 29.07543945 52.53442383 C29.0875232 54.54245777 29.09269807 56.55052957 29.09765625 58.55859375 C29.10551147 60.37315063 29.10551147 60.37315063 29.11352539 62.22436523 C29 65 29 65 28 66 C26.09715013 66.09974389 24.19061747 66.1308063 22.28515625 66.1328125 C21.12435547 66.13410156 19.96355469 66.13539062 18.76757812 66.13671875 C17.54490234 66.13285156 16.32222656 66.12898438 15.0625 66.125 C13.84369141 66.12886719 12.62488281 66.13273437 11.36914062 66.13671875 C10.20705078 66.13542969 9.04496094 66.13414063 7.84765625 66.1328125 C6.77523682 66.13168457 5.70281738 66.13055664 4.59790039 66.12939453 C2 66 2 66 0 65 C0 43.55 0 22.1 0 0 Z " fill="#171717" transform="translate(221,60)"/>
<path d="M0 0 C10.23 0 20.46 0 31 0 C31 21.45 31 42.9 31 65 C20.77 65 10.54 65 0 65 C0 43.55 0 22.1 0 0 Z " fill="#171717" transform="translate(284,61)"/>
<path d="M0 0 C6.01282473 1.20256495 10.39017481 4.63546106 13.81640625 9.66796875 C20.00274575 20.71393879 19.7518208 29.11766766 16.4230957 41.07177734 C15.95558938 42.71648334 15.4787607 44.35853474 15 46 C8.79535375 45.16889265 4.81495788 39.51755109 1 35 C-4.48740375 26.95748585 -5.18445037 18.52801226 -4 9 C-3.00190499 5.75726214 -1.75923433 2.89802441 0 0 Z " fill="#F8F8F8" transform="translate(267,155)"/>
<path d="M0 0 C10.33333333 3.44444444 10.33333333 3.44444444 13 7 C14.60288305 11.80864914 14.77236515 16.17071411 12.8125 20.8125 C9.00602105 25.40652632 5.9351777 26.01080372 0 27 C0 18.09 0 9.18 0 0 Z " fill="#F9F9F9" transform="translate(170,154)"/>
<path d="M0 0 C3.34430737 0.72366315 5.34262343 1.81715496 8 4 C6.2174697 9.94176766 3.62759492 15.49141492 1.0625 21.125 C0.61970703 22.11371094 0.17691406 23.10242188 -0.27929688 24.12109375 C-0.71177734 25.07371094 -1.14425781 26.02632812 -1.58984375 27.0078125 C-1.98034912 27.87035645 -2.37085449 28.73290039 -2.77319336 29.62158203 C-3.98273799 31.96653402 -5.35533527 33.94260685 -7 36 C-7.33 35.34 -7.66 34.68 -8 34 C-8.99 34.495 -8.99 34.495 -10 35 C-9.9278125 34.38511719 -9.855625 33.77023438 -9.78125 33.13671875 C-9.6884375 32.32847656 -9.595625 31.52023438 -9.5 30.6875 C-9.4071875 29.88699219 -9.314375 29.08648437 -9.21875 28.26171875 C-8.95186537 25.88103445 -8.95186537 25.88103445 -9 23 C-9.66 23.33 -10.32 23.66 -11 24 C-9.39323547 18.54406329 -6.94969106 13.6697853 -4.375 8.625 C-3.95476562 7.79355469 -3.53453125 6.96210937 -3.1015625 6.10546875 C-2.07133925 4.06843641 -1.03741179 2.03337811 0 0 Z " fill="#1F1F1F" transform="translate(390,63)"/>
<path d="M0 0 C3.39517814 -0.1748936 6.78919487 -0.28103765 10.1875 -0.375 C11.14720703 -0.42527344 12.10691406 -0.47554688 13.09570312 -0.52734375 C20.11487607 -0.67307052 20.11487607 -0.67307052 22.79150391 1.36230469 C24.17578125 3.0234375 24.17578125 3.0234375 26 6 C24.63016497 9.16115776 24.0109362 9.9927092 21 12 C14.30608625 11.70896027 7.064704 9.76866922 1 7 C0.1171875 4.86328125 0.1171875 4.86328125 0 3 C1.65 3 3.3 3 5 3 C5 2.34 5 1.68 5 1 C3.35 1 1.7 1 0 1 C0 0.67 0 0.34 0 0 Z " fill="#262626" transform="translate(434,87)"/>
<path d="M0 0 C3.63388917 0.47994763 4.02480894 0.7810219 6.25 3.4375 C7.2709375 4.9225 7.2709375 4.9225 8.3125 6.4375 C6.94266497 9.59865776 6.3234362 10.4302092 3.3125 12.4375 C-2.86847599 12.051189 -8.75856285 10.14220345 -14.6875 8.4375 C-15.0175 7.1175 -15.3475 5.7975 -15.6875 4.4375 C-14.6975 4.1075 -13.7075 3.7775 -12.6875 3.4375 C-12.3575 2.7775 -12.0275 2.1175 -11.6875 1.4375 C-7.79649095 0.76663637 -3.91919303 0.464989 0 0 Z " fill="#1A1A1A" transform="translate(267.6875,88.5625)"/>
<path d="M0 0 C1.875 0.875 1.875 0.875 3.125 2.6875 C3.875 4.875 3.875 4.875 3.875 8.875 C2.885 9.37 2.885 9.37 1.875 9.875 C1.21944881 12.40233235 1.21944881 12.40233235 0.875 14.875 C-6.125 6.125 -6.125 6.125 -6.125 1.875 C-3.9269253 0.54045464 -2.59886397 -0.15287435 0 0 Z " fill="#1F1F1F" transform="translate(331.125,72.125)"/>
<path d="M0 0 C0.33 0.66 0.66 1.32 1 2 C0.67 2.66 0.34 3.32 0 4 C-0.66 4 -1.32 4 -2 4 C-2 4.66 -2 5.32 -2 6 C-2.66 6 -3.32 6 -4 6 C-4 6.66 -4 7.32 -4 8 C-4.66 8 -5.32 8 -6 8 C-6.33 8.99 -6.66 9.98 -7 11 C-8.7421875 12.71875 -8.7421875 12.71875 -10.875 14.5 C-13.35415347 16.58578225 -15.7439576 18.67301287 -18 21 C-18.66 20.67 -19.32 20.34 -20 20 C-13.4 13.4 -6.8 6.8 0 0 Z " fill="#DDDDDD" transform="translate(541,197)"/>
<path d="M0 0 C3.1875 -0.375 3.1875 -0.375 7 0 C9.1403498 1.81188028 10.38988302 3.65801167 12 6 C10.95125002 8.62187494 10.35068687 9.79371361 7.875 11.25 C7.25625 11.4975 6.6375 11.745 6 12 C6.185625 11.484375 6.37125 10.96875 6.5625 10.4375 C7.15419517 7.14091261 6.567267 4.27754265 6 1 C4.02 1 2.04 1 0 1 C0 0.67 0 0.34 0 0 Z " fill="#373737" transform="translate(264,89)"/>
<path d="M0 0 C1.8125 0.1875 1.8125 0.1875 4 1 C5.8125 3.375 5.8125 3.375 7 6 C6.67 6.99 6.34 7.98 6 9 C5.34 9 4.68 9 4 9 C2.98133771 7.34467377 1.98189187 5.67739862 1 4 C0.34 3.67 -0.32 3.34 -1 3 C-0.67 2.01 -0.34 1.02 0 0 Z " fill="#1E1E1E" transform="translate(627,126)"/>
<path d="M0 0 C1.98 0 3.96 0 6 0 C6 0.99 6 1.98 6 3 C8.475 3.99 8.475 3.99 11 5 C10.67 5.99 10.34 6.98 10 8 C4.98886765 6.5682479 3.05530451 4.01554307 0 0 Z " fill="#262626" transform="translate(511,211)"/>
<path d="M0 0 C1.9375 0.8125 1.9375 0.8125 4 2 C5 5 5 5 4.0625 7.1875 C3.5365625 8.0846875 3.5365625 8.0846875 3 9 C2.34 9 1.68 9 1 9 C-0.75 6.75 -0.75 6.75 -2 4 C-1.1875 1.6875 -1.1875 1.6875 0 0 Z " fill="#1F1F1F" transform="translate(281,160)"/>
<path d="M0 0 C-0.99 0.495 -0.99 0.495 -2 1 C-2 1.99 -2 2.98 -2 4 C-2.66 4 -3.32 4 -4 4 C-4 4.66 -4 5.32 -4 6 C-4.66 6 -5.32 6 -6 6 C-6.66 4.02 -7.32 2.04 -8 0 C-4.94736336 -0.98120464 -3.05263664 -0.98120464 0 0 Z " fill="#323232" transform="translate(536,245)"/>
<path d="M0 0 C0.66 0.33 1.32 0.66 2 1 C1.375 2.875 1.375 2.875 0 5 C-3.125 6.25 -3.125 6.25 -6 7 C-6.66 6.34 -7.32 5.68 -8 5 C-6.71475739 4.13619741 -5.42157581 3.28419631 -4.125 2.4375 C-3.04605469 1.72400391 -3.04605469 1.72400391 -1.9453125 0.99609375 C-1.30335937 0.66738281 -0.66140625 0.33867187 0 0 Z " fill="#262626" transform="translate(66,128)"/>
<path d="M0 0 C1.32 0.99 2.64 1.98 4 3 C2.63016497 6.16115776 2.0109362 6.9927092 -1 9 C-1.33 7.68 -1.66 6.36 -2 5 C-1.01 4.67 -0.02 4.34 1 4 C0.67 2.68 0.34 1.36 0 0 Z " fill="#1D1D1D" transform="translate(540,190)"/>
<path d="M0 0 C3.27286682 2.7819368 4.96427697 6.27954067 7 10 C6.01 10 5.02 10 4 10 C1.09677182 6.35022743 0 4.74147821 0 0 Z " fill="#272727" transform="translate(427,172)"/>
<path d="M0 0 C0.99 0 1.98 0 3 0 C3 0.99 3 1.98 3 3 C-0.96 4.98 -0.96 4.98 -5 7 C-5 5.68 -5 4.36 -5 3 C-4.360625 2.690625 -3.72125 2.38125 -3.0625 2.0625 C-1.06389179 1.1654837 -1.06389179 1.1654837 0 0 Z " fill="#1F1F1F" transform="translate(90,137)"/>
<path d="M0 0 C-0.33 0.33 -0.66 0.66 -1 1 C-0.34 1.33 0.32 1.66 1 2 C1 2.66 1 3.32 1 4 C-1.31 4 -3.62 4 -6 4 C-6 2.68 -6 1.36 -6 0 C-2.25 -1.125 -2.25 -1.125 0 0 Z " fill="#252525" transform="translate(388,153)"/>
<path d="M0 0 C1.875 0.3125 1.875 0.3125 4 1 C4.66 1.99 5.32 2.98 6 4 C5.34 4.66 4.68 5.32 4 6 C3.01 6 2.02 6 1 6 C0.67 4.02 0.34 2.04 0 0 Z " fill="#1F1F1F" transform="translate(83,217)"/>
<path d="M0 0 C-2.05233685 2.2477975 -3.00667261 3.0022242 -6 4 C-6.99 3.34 -7.98 2.68 -9 2 C-3.375 -1.125 -3.375 -1.125 0 0 Z " fill="#202020" transform="translate(586,242)"/>
<path d="M0 0 C1.2065625 0.0309375 1.2065625 0.0309375 2.4375 0.0625 C1.06766497 3.22365776 0.4484362 4.0552092 -2.5625 6.0625 C-2.94468767 4.40635343 -3.27645102 2.73792976 -3.5625 1.0625 C-2.5625 0.0625 -2.5625 0.0625 0 0 Z " fill="#242424" transform="translate(134.5625,229.9375)"/>
<path d="M0 0 C0.66 0 1.32 0 2 0 C2.33 0.66 2.66 1.32 3 2 C5.02463255 2.65213292 5.02463255 2.65213292 7 3 C6.01 4.485 6.01 4.485 5 6 C3.0625 5.25 3.0625 5.25 1 4 C0.25 1.875 0.25 1.875 0 0 Z " fill="#1F1F1F" transform="translate(177,193)"/>
<path d="M0 0 C2.4375 0.8125 2.4375 0.8125 5 2 C5.33 2.99 5.66 3.98 6 5 C5.34 5.66 4.68 6.32 4 7 C2.35 5.02 0.7 3.04 -1 1 C-0.67 0.67 -0.34 0.34 0 0 Z " fill="#2A2A2A" transform="translate(457,164)"/>
<path d="M0 0 C0.99 0 1.98 0 3 0 C3.185625 1.7015625 3.185625 1.7015625 3.375 3.4375 C3.684375 5.2009375 3.684375 5.2009375 4 7 C4.66 7.33 5.32 7.66 6 8 C4.35 8.33 2.7 8.66 1 9 C1.20625 8.443125 1.4125 7.88625 1.625 7.3125 C2.10695211 4.340462 1.26565028 2.68020059 0 0 Z " fill="#141414" transform="translate(267,90)"/>
<path d="M0 0 C0.33 0.66 0.66 1.32 1 2 C-1.66666667 3.33333333 -4.33333333 4.66666667 -7 6 C-8.32 5.34 -9.64 4.68 -11 4 C-7.37 2.68 -3.74 1.36 0 0 Z " fill="#3A3A3A" transform="translate(547,239)"/>
<path d="M0 0 C2.97 1.98 2.97 1.98 6 4 C4.02 4.99 4.02 4.99 2 6 C1.34 4.02 0.68 2.04 0 0 Z " fill="#2C2C2C" transform="translate(301,145)"/>
<path d="M0 0 C0.639375 0.2475 1.27875 0.495 1.9375 0.75 C2.2675 1.74 2.5975 2.73 2.9375 3.75 C1.9475 4.245 1.9475 4.245 0.9375 4.75 C0.2775 4.42 -0.3825 4.09 -1.0625 3.75 C-1.0625 3.09 -1.0625 2.43 -1.0625 1.75 C-2.0525 1.42 -3.0425 1.09 -4.0625 0.75 C-2.0625 -0.25 -2.0625 -0.25 0 0 Z " fill="#2F2F2F" transform="translate(355.0625,146.25)"/>
</svg>
